<?xml version="1.0" encoding="utf-8"?>
<!-- Generator: Adobe Illustrator 19.1.0, SVG Export Plug-In . SVG Version: 6.00 Build 0)  -->
<svg version="1.1" id="Layer_1" xmlns="http://www.w3.org/2000/svg" xmlns:xlink="http://www.w3.org/1999/xlink" x="0px" y="0px"
	 viewBox="231 -241 512 512" style="enable-background:new 231 -241 512 512;" xml:space="preserve">
<style type="text/css">
	.st0{fill:#6A6E7C;}
	.st1{fill:#F12938;}
</style>
<path class="st0" d="M487,248.1c-6.7,0-13.2-2.7-17.8-7.4l-195-196.8l-0.1-0.1C246.3,14.6,231-23.5,231-63.5c0-10.2,1-20.5,3-30.6
	c0-0.2,0.1-0.4,0.1-0.6c14.7-71.5,78.1-123.4,150.9-123.4c38.1,0,73.9,13.7,102,38.7c28-25,63.9-38.7,102-38.7
	c84.9,0,154,69.4,154,154.6c0,42.4-16.7,81.8-47,111.2l-191.2,193C500.2,245.4,493.7,248.1,487,248.1z M289.3,29.1l194.9,196.8
	c0.8,0.8,1.8,1.2,2.9,1.2s2.1-0.4,2.8-1.2L681.1,32.7c0.1-0.1,0.1-0.1,0.2-0.2C707.5,7.2,722-27,722-63.6
	c0-73.6-59.6-133.5-132.9-133.5c-35.9,0-69.4,14-94.5,39.5c-2,2-4.7,3.2-7.5,3.2c-2.8,0-5.5-1.1-7.5-3.2
	c-25-25.5-58.5-39.5-94.5-39.5c-62.8,0-117.5,44.8-130.2,106.4c0,0.1,0,0.2-0.1,0.3c-1.8,8.8-2.7,17.8-2.7,26.8
	C252.1-29,265.3,3.9,289.3,29.1z"/>
<path class="st1" d="M487,248.1c-6.7,0-13.2-2.7-17.8-7.4l-195-196.8l-0.1-0.1C246.3,14.6,231-23.5,231-63.5c0-10.2,1-20.5,3-30.6
	c0-0.2,0.1-0.4,0.1-0.6c14.7-71.5,78.1-123.4,150.9-123.4c38.1,0,73.9,13.7,102,38.7c28-25,63.9-38.7,102-38.7
	c84.9,0,154,69.4,154,154.6c0,42.4-16.7,81.8-47,111.2l-191.2,193C500.2,245.4,493.7,248.1,487,248.1z"/>
<g id="Layer_2">
</g>
</svg>
